<svg id="Layer_1" data-name="Layer 1" xmlns="http://www.w3.org/2000/svg" viewBox="0 0 346.52 218.25"><defs><style>.cls-1{fill:#d93b38;}.cls-2{fill:#e33d3b;}.cls-3{fill:#213d8c;}</style></defs><path class="cls-1" d="M217,101a43.74,43.74,0,0,1-52.26,26.54c-.33-.47-.68-.62-1-.27a43.73,43.73,0,0,1,10.74-85.64c-.55,0-1.1,0-1.65,0A46.08,46.08,0,0,0,139.09,119l-3.47-1.33a3.66,3.66,0,0,1-1.74-.41c-3.11-1.13-6.15-2.39-9.14-3.74l-.2-.07v0a158.24,158.24,0,0,1-18.78-10.15A201,201,0,0,1,78.3,82.15c.23.34.45.7.7,1,11.68,15.1,26.26,26.69,43,35.6v0s21.65,13.3,46.38,14.77a45.19,45.19,0,0,0,4.53.23,46.8,46.8,0,0,0,4.76-.27c.17,0,.34,0,.51,0l-.13,0A46.09,46.09,0,0,0,217,101"/><polygon class="cls-2" points="78.29 82.14 78.3 82.15 78.29 82.14 78.29 82.14"/><path class="cls-1" d="M63,179.54a6.88,6.88,0,0,1-3.3,3.13,12.61,12.61,0,0,1-4.72,1l-11.59.13a19.83,19.83,0,0,0,.17-2.26c0-.92,0-2,0-3.2v-14l3.91-.13a18.64,18.64,0,0,1,4.18.17,3.63,3.63,0,0,1,2.52,1.58A7.8,7.8,0,0,1,55,170.1h3V155.21H54.3l.4,5.79H43.58V150.42a21.13,21.13,0,0,1,.34-4.28,3.43,3.43,0,0,1,1.41-2.29,5.84,5.84,0,0,1,3.17-.71l4.72-.13a12.26,12.26,0,0,1,4.28.6,6.06,6.06,0,0,1,3.23,2.7A11.27,11.27,0,0,1,62,152.17h3L64.61,140H31.72v3.7l2.42-.13,2.5-.14c0,.68-.09,1.47-.14,2.39s-.06,1.88-.06,2.87v28a25.75,25.75,0,0,1-.27,4.11,3.85,3.85,0,0,1-1.25,2.42,5.57,5.57,0,0,1-3.2.95v3h35l.41-13.68h-3A12.77,12.77,0,0,1,63,179.54"/><path class="cls-1" d="M94.6,166.33a7.92,7.92,0,0,1-3.36,3.07,11.48,11.48,0,0,1-5.06,1.07c-.6,0-1.11,0-1.55,0s-.7,0-1.13-.08v-12a17.92,17.92,0,0,1,.21-3.05,2.55,2.55,0,0,1,.8-1.59,3.16,3.16,0,0,1,2-.53,15.47,15.47,0,0,1,3.61.41,8.45,8.45,0,0,1,3,1.33,6.23,6.23,0,0,1,2,2.53,10.16,10.16,0,0,1,.73,4.08,9.21,9.21,0,0,1-1.21,4.81m.67-15.46a27,27,0,0,0-8.61-1.21c-2.23,0-4.43,0-6.59,0l-6.37.08h-.45v3.86l.48,0,1.91-.1,1.45-.08c0,.41,0,.87-.07,1.38,0,.73-.06,1.49-.06,2.27v22.09a20.84,20.84,0,0,1-.2,3.16,2.6,2.6,0,0,1-.83,1.64,4,4,0,0,1-2.25.64l-.43,0v3.23H88.12v-3.93l-.49,0c-.45,0-.95.06-1.49.08s-1.12,0-1.69.08l-1,.07c0-.38.06-.83.07-1.33,0-.76,0-1.63,0-2.58v-6.21a12.87,12.87,0,0,0,2.1,0A25.2,25.2,0,0,0,94,172.84a14.52,14.52,0,0,0,5.35-3.16,11.54,11.54,0,0,0,2.81-4.26,12,12,0,0,0,.77-4.43,10.34,10.34,0,0,0-2-6.35,11.72,11.72,0,0,0-5.58-3.77"/><path class="cls-1" d="M105.74,153.62l.48,0,1.91-.1,1.45-.08c0,.41,0,.87-.07,1.38q-.06,1.1-.06,2.28v22.08a19.61,19.61,0,0,1-.2,3.16,2.6,2.6,0,0,1-.82,1.64,4.08,4.08,0,0,1-2.26.64l-.43,0v3.23h14V184l-.49,0c-.52,0-1.14.07-1.86.08-.52,0-1,0-1.46.08,0-.38.06-.81.07-1.31,0-.76,0-1.63,0-2.58V158.45a20.62,20.62,0,0,1,.2-3.19,2.58,2.58,0,0,1,.85-1.64,3.68,3.68,0,0,1,2.22-.61h.44v-3.24h-14Z"/><path class="cls-3" d="M198.3,99.85c-1.44-.11-1.63.19-1.35,1.94l1.35-1.94m-.37-34.74.27-.21-.64-.84c-.25.24-.67.47-.7.73a2.43,2.43,0,0,0,.29,1.41c.77,1.25,2.51,1.71,2.74,3.47,0,.32.85.67,1.35.76s1-.22.53-.85c-.28-.42-.66-.77-1-1.17-.16-.2-.45-.56-.4-.64.52-.69-.11-.62-.46-.83-.79-.47-1.85-.7-2-1.83m-7.84.38c-.13,1.09-.23,1.82-.3,2.56s.84,1.72,1.44,1.22c1.16-1,2.27-.71,3.48-.45a.77.77,0,0,0,.67-.16c.18-.21.37-.62.28-.81-.41-.87-3-1.51-3.81-1l-1.76-1.37m-12.27-1.78,2.2-1.83c0-.56.06-1.2.09-1.83h.37c.13.53.25,1.07.41,1.76.93-.13,1.89-.22,2.81-.44.19,0,.27-.57.4-.88l.46-1.08-.51-.37,1.32-.7c-.65-.11-1.6,0-2-.39s-.31-1.38-.45-2.21c-.06,0-.4.11-.43.24a3.91,3.91,0,0,0-.22,1.93c.7,1.81.49,2.65-1.06,3.39-.13-.52-.11-1.21-.45-1.55s-1-.31-1.76-.48c-.24-.73-.81-1.6.48-2.42a3.2,3.2,0,0,0,.91-1.76,2,2,0,0,1,2.84-1.41c.59.22,1.25.22,1.85.41a2,2,0,0,1,1.11.85l-.95.19c.69.73.86.67,1.37-.2a3.59,3.59,0,0,1,3-2.13l-1.77-1.18.1-.19,1.13.44L188,49.21a9.87,9.87,0,0,0,2.27.41,6.26,6.26,0,0,0,1.81-.64c0,.05,0-.06,0-.15-.09-.26-.2-.51-.3-.77.3-.05.67-.24.88-.12a74.11,74.11,0,0,1,8.14,4.65,39.76,39.76,0,0,1,15.68,24.5c.26,1.22.34,2.49.5,3.73l-.33.05-1-5.9-.34,0a1,1,0,0,0-.1.28c.24,3.35.36,6.71.79,10a6.47,6.47,0,0,1-.5,4.28l-1-.12a35.74,35.74,0,0,0-.07-5.58,32.61,32.61,0,0,0-1.57-5.08c-1.56-.22-1.67-2-3.07-2.28-.89.5-2,1.37-3.29.16-.07-.07-.36.11-.55.1-.91-.06-1.81-.07-2.4-1-.16-.25-.61-.31-.93-.46.1.36.09.82.32,1.07.56.63,1.26,1.12,1.84,1.73a2.94,2.94,0,0,1,.38,1c1.19,0,1.07-1,1.25-1.54.55.4,1.14.78,1.67,1.23.26.22.61.55.59.82-.1,1.69,0,3.44-1.32,4.83-.53.54-.71,1.4-1.22,2-.81.89-1.75,1.66-2.76,2.59a8.11,8.11,0,0,1-.36-.93,8.6,8.6,0,0,0-2.6-4.79,3.5,3.5,0,0,1-.42-.57c-.93-1.34-1.83-2.71-2.82-4-.21-.28-.73-.33-1.1-.49l-.18.27c.9,1.28,1.82,2.54,2.71,3.83a3.15,3.15,0,0,1,.4,1,8.75,8.75,0,0,0,2.68,4.25,9.51,9.51,0,0,1,1.55,2.1c.37.64.72.9,1.39.41s1.4-1,2.26-1.6a4.34,4.34,0,0,1,.17,1.3c-.61,2.84-1.28,5.66-3.38,7.87a11.83,11.83,0,0,0-3.22,7.23c-.09.89,0,1.79-.09,2.67a4.74,4.74,0,0,1-2.51,3.29c-1.22.77-2.46,1.53-2.44,3.26a1.26,1.26,0,0,1-.49.78,49.8,49.8,0,0,1-5,4,15.48,15.48,0,0,1-4.12,1.37c-.16,0-.45-.41-.67-.64,0,0,.05-.08,0-.1-.62-1.78-.11-3.79-1.14-5.47a3.13,3.13,0,0,1,.1-3.79c1.23-1.63.84-3.32.18-5-.37-.9-1.15-1.62-1.59-2.5a3.82,3.82,0,0,1-.27-1.75,12.56,12.56,0,0,0,.29-1.86c-.07-.47-.71-1.29-.89-1.23-1.46.39-2.26-.23-2.72-1.73-2.57,1.94-5.42,1-8.1,1.29a1.48,1.48,0,0,1-1.09-.57c-1.08-1.37-2.11-2.78-3.1-4.2-.57-.81-1.46-1.5-1.16-2.7a5.2,5.2,0,0,1,.21-1.07,4.83,4.83,0,0,0,.42-4,1,1,0,0,1,0-.77q1.34-2,2.74-3.94c.59-.82,1.27-1.59,1.85-2.41.91-1.28,1.77-2.59,2.63-3.86a3.36,3.36,0,0,0,3.09.11,20.86,20.86,0,0,1,4.78-1.16c1.19-.17,1.56.83,1,2.33,1.22.55,2.62.68,3.54,1.94.63.87,1.64.41,2-.68a1.23,1.23,0,0,1,.91-.75,5.69,5.69,0,0,1,2.33.33,5.35,5.35,0,0,0,3.68,0,1.53,1.53,0,0,0,.92-1.11,10.92,10.92,0,0,0-.56-2.54c0-.15-.47-.36-.5-.34-.56.62-1.25.29-1.91.35-1.63.16-2.25-.06-2.95-1.56s-.66-1.41-1.66-.19l1,1c-.18.36-.37.75-.69,1.36-1.84-2-2.86-4.85-5.71-5.7,0,1,0,1,3.2,3.24h-.46l-.89,2.63L183,72.42l2.24-.61c-1.41-1.32-2.47-2.72-3.87-3.45-.68-.35-2.21.31-3,1a7.29,7.29,0,0,0-1.59,2.76,3,3,0,0,1-3.52,1.37c-.28-.15-.57-.28-.9-.43.06-1.08.13-2.18.18-3.28,0-.85.49-1.2,1.32-1.1a5.72,5.72,0,0,0,1.3.08c.44,0,1.1-.11,1.24-.39a1.86,1.86,0,0,0-.08-1.44,5.31,5.31,0,0,0-1-1.18l2.53-2Z"/><path class="cls-3" d="M153.28,113.82c1.63,2.25.9,5.64,4,7l-.28.3a42.07,42.07,0,0,1-4.89-3.39A47,47,0,0,1,137.57,94a11.09,11.09,0,0,1-.14-2.94,37.33,37.33,0,0,1,.31-4.09c.11-.83.32-1.76,1.14-1.79.86.93,1.58,1.72,2.32,2.49.28.29.74.45.91.78.52,1,.88,2,1.43,3A4.88,4.88,0,0,0,144.93,93a4.45,4.45,0,0,1,2,3.23,4.53,4.53,0,0,0,1.66,2.55c1.81,1.81,4.34,2.45,6.12,4.23a3.58,3.58,0,0,1,.62,3,12.93,12.93,0,0,0-.76,1.71,3.75,3.75,0,0,0,0,1.53c.17,1,.46,2,.65,3,.12.67.17,1.32-.9,1.08-.23,0-.54.28-1,.54"/><path class="cls-3" d="M157.68,61.69l-4.28-.22c0,.12,0,.24,0,.36l.79.1c-.31.65-.63,1.3-.95,2l.24.17,1-.56c-.86,1.37-2.17,1-3.23,1.27l1-.71c-1.28.24-2.35.23-3.16,1.29-.39.5-1.38.48-2,.88A24.26,24.26,0,0,0,145,68.09a5.11,5.11,0,0,1-1.05.74,5.43,5.43,0,0,0-3.08,3.41A5.65,5.65,0,0,1,140,74l1-4c-.47-.53-1.65.69-1.36-.73-.46.8-.93,1.59-1.46,2.52,1.62-8.56,17-24.51,22.81-23.58l-1.15,1.1c.09.47.17.93.25,1.37l2.72-1.46.23.33c-.11.18-.22.36-.35.59l3.3,1.13a23.72,23.72,0,0,1-1.35,2.86c-.21.33-.86.38-1.32.41l-2.16,1.49c-.06-.75-.11-1.31-.15-1.77.78-.3,1.61-.58,2.39-1,.16-.08.14-.54.24-1l-4.41,2.1-.13-.23.64-.74a35.75,35.75,0,0,0-4,1.38,2.6,2.6,0,0,0-1.35,1.55c-.25,1.26-1.11,2-1.77,3,2-1.3,4.08-2.62,6.15-3.88a4.25,4.25,0,0,1,1.33-.24c-.19.41-.35.84-.56,1.23a8.31,8.31,0,0,1-.71.89l1.79-.61a11.35,11.35,0,0,0-.75,1.19c-.28.6-.44,1.27-.77,1.84a22.6,22.6,0,0,1-1.4,1.86Z"/><path class="cls-3" d="M198.91,114.57c0-.41-.11-.55-.06-.63,1-1.84,1.52-4,3.29-5.3a6,6,0,0,0,.55-.45,26.73,26.73,0,0,0,6-8.82,10.32,10.32,0,0,1,1.21-2.17c0,.41.1.83.12,1.24a12,12,0,0,0,.07,2.41,4.18,4.18,0,0,1-.59,3.61c-1,1.45-2.08,2.88-3.12,4.31l-1.69,2.3c-.18-1.28-.31-2.19-.47-3.3-1.78,2.3-2.82,5-5.35,6.8"/><path class="cls-3" d="M169.46,51.4l-.9-.49.37-.59-2.16.27c1.5-1.66,3.22-1.65,5.06-.91a2.93,2.93,0,0,0,.94.06l3,.22c-.91,1.24-1.59,2.25-2.36,3.19A4.66,4.66,0,0,1,172,54.38a8.31,8.31,0,0,1-2.64.92,5.64,5.64,0,0,0-2.82,1.6c-.42.35-.85.68-1.28,1-.75-1-.1-2.78,1.13-3.73,1-.81,2-1.77,3.05-2.79"/><path class="cls-3" d="M186.17,122.64V124a22.44,22.44,0,0,1-8.74,1.82c-.71,0-1.51.27-2-.65-.08-.15-.66-.09-1-.07-1.1.09-2.2.21-3.52.34,2.26-1.28,2.26-1.1,4.82-1.15a39.94,39.94,0,0,0,5.8-.91l4.63-.74"/><path class="cls-3" d="M137,86.62a22.86,22.86,0,0,1-.39-9.59c.1-.54.68-1,1.14-1.46A31.72,31.72,0,0,0,137,86.62"/><path class="cls-3" d="M177.83,63.7l-2.71.65.83-2.49-1-.76,0,0c.22-.6.43-1.21.64-1.81l.32.06q.92,2.16,1.84,4.32h0"/><path class="cls-3" d="M212.33,89.3c.25-1.09.49-2.17.73-3.25l.87.53c-.2,1-.43,2.2-.65,3.36l-.25,0c.05-.43.11-.87.19-1.55l-.74,1-.15-.06"/><path class="cls-3" d="M157.66,61.66a9.56,9.56,0,0,1-.24,1.06c-.2.55-.46,1.08-.75,1.75L155.1,63l2.58-1.35Z"/><path class="cls-3" d="M175,61.1c.2,1.49-.12,2.35-1.7,2.28.26-1,.5-2,1.73-2.24l0,0"/><path class="cls-3" d="M215.56,92.63c.15,1-.36,1.17-1.1.85s-1.65-.9-2.63-1.44l3.75.62Z"/><path class="cls-3" d="M215.58,92.66c.43-1.72.85-3.43,1.28-5.15l.47.12c-.45,1.62-.9,3.24-1.37,4.85,0,.08-.26.1-.4.16Z"/><path class="cls-3" d="M171.75,55.6c.73,0,1.18,0,1.63,0a2.32,2.32,0,0,1,.65.29c-.11.18-.2.49-.35.53a3.94,3.94,0,0,1-1.54.24c-.16,0-.25-.67-.39-1.08"/><path class="cls-3" d="M139.54,78.84c-.25-1.12-.51-2.23-.77-3.35,1.15.78.72,2.16,1.24,3.2l-.47.15"/><path class="cls-3" d="M141.07,81.05l-1.49-.71.8-1.23c.35.64.64,1.18.92,1.71l-.23.23"/><path class="cls-3" d="M186.85,52.73c-.81.09-1.16-.69-1.51-1.35-.11-.21.14-.61.19-.77l1.32,2.12"/><path class="cls-3" d="M211.05,49.48c3.85,4.39,7.38,9,9.71,14.4,4.62,10.76,3.66,21.35-.87,31.94,0-2.44,0-4.76,0-7.09s-.09-4.67-.34-7c-1.91-18-11.54-30.28-28.07-37.33-11.68-5-23.82-6.45-36.43-5.32-24.59,2.18-47,10.78-68.52,22.41-4,2.14-7.8,4.47-11.69,6.7-.56.32-1,.87-1.88.54,21.12-16.85,44.11-29.93,70.66-35.87,35.87-8,69-1.16,99.55,18.93a173.86,173.86,0,0,1,30.1,25.58c1,1.06.8,1.69.08,2.67-11.29,15.44-26.07,26.49-43.3,34.46a153.1,153.1,0,0,1-17.93,6.89,3.37,3.37,0,0,1-1.92.35c2-3.34,3.93-6.61,5.88-9.87.43-.73,1.26-.89,1.94-1.22,13.84-6.82,25.66-16.08,34.88-28.55.94-1.28.85-2-.24-3C241,67.32,228.08,57.24,213.14,50c-.59-.29-1.2-.54-1.8-.8-.19-.1-.4-.23-.56,0,0,0,.18.21.27.32"/><path class="cls-3" d="M173.39,153.69a6.36,6.36,0,0,1,2.45-.68l.41,0v-3.21H164.19v3.86l.48,0,2-.08,1.29,0a9.69,9.69,0,0,0-.64,1.38c-.29.77-.54,1.5-.75,2.17-.29.85-.56,1.72-.83,2.61s-.56,1.88-.88,3-.71,2.38-1.19,3.86-1.06,3.25-1.78,5.33c-.35,1.23-.71,2.44-1.08,3.62q-.33,1-.63,2c-.29-1.08-.61-2.14-1-3.18l-1.4-4.37q-.59-1.92-1.44-4.5c-.56-1.72-1.15-3.5-1.75-5.36s-1.19-3.66-1.78-5.42-1-3.26-1.4-4.56l-.09-.34h-3.46l-.09.34c-.35,1.29-.85,2.95-1.53,5.07l-2.26,7q-1.25,3.87-2.52,7.92l-.48,1.56-.69,2.29-.72,2.41q-.09.33-.18.63c-.33-1.11-.65-2.12-1-3-.44-1.25-.87-2.61-1.29-4-.64-2.13-1.28-4.17-1.92-6.07s-1.25-4-1.85-6.18-.41-3.26-.14-3.66c.39-.57,1.45-.91,3.07-1l.43,0v-3.23H122.09v3.87l.49,0c.86-.06,1.7,0,2.66-.08a19.8,19.8,0,0,0,.56,2.2c.3,1,.72,2.29,1.25,3.89l9.55,28.71h3.27L147,166c.32-1,.62-2,.9-3,.13-.45.26-.9.38-1.35l.42,1.45c.3,1,.65,2.11,1,3.18l7.54,22h3.31l.1-.3c1.55-4.54,3.11-9.26,4.65-14s3-9.39,4.59-14.16a31.62,31.62,0,0,1,1.77-4.26,4.62,4.62,0,0,1,1.66-1.87"/><path class="cls-3" d="M183.29,172.8l3.07-8.78c.46-1.24.87-2.4,1.23-3.46l.54-1.64c.21.66.43,1.34.66,2,.39,1.16.8,2.32,1.23,3.5l3.11,8.35Zm21.82,11.28c-.43,0-.87,0-1.31.08a10.63,10.63,0,0,0-.49-2.57c-.36-1.15-.69-2.09-1-2.76L190.71,149l-.11-.29h-2.76L177,178.4c-.46,1.2-.88,2.29-1.27,3.26a6.23,6.23,0,0,1-1.33,2.16,2.9,2.9,0,0,1-2.12.71h-.46v3.31h11.32v-3.92l-.48,0c-.56,0-1.2.06-1.92.08-.45,0-.9,0-1.33.06.15-.38.31-.77.46-1.16.26-.65.49-1.35.7-2l1.44-4.32,12.36-.3,1.48,4a8.67,8.67,0,0,1,.53,2.12,2,2,0,0,1-.38,1.55,2.88,2.88,0,0,1-2.12.65h-.45v3.24h13.81V184l-.49,0c-.52,0-1.07.07-1.65.08"/><path class="cls-3" d="M205.56,149.76l-.35,12.38h3.43v-.45c0-2.94.47-5.12,1.4-6.49a4.85,4.85,0,0,1,4.35-2l4,0v26a19.53,19.53,0,0,1-.21,3.14,2.66,2.66,0,0,1-.8,1.66,3.88,3.88,0,0,1-2.22.64l-.43,0v3.23h14.4V184l-.49,0c-.63,0-1.34.07-2.13.08-.59,0-1.15,0-1.67.09,0-.37,0-.81.07-1.32,0-.76,0-1.63,0-2.58l.06-27.15h3.37a6.06,6.06,0,0,1,3.74.87,5.15,5.15,0,0,1,1.92,2.79,17.78,17.78,0,0,1,.67,4.91v.45h3.41l-.34-12.38Z"/><path class="cls-3" d="M272.31,178.46a14.43,14.43,0,0,1-5.32,4.45,14.84,14.84,0,0,1-6.52,1.57,11.32,11.32,0,0,1-6.56-2,13.39,13.39,0,0,1-4.55-5.62,20.23,20.23,0,0,1-1.65-8.39,21.42,21.42,0,0,1,.91-6.42,15.84,15.84,0,0,1,2.55-5.06,11.74,11.74,0,0,1,3.88-3.3,10.52,10.52,0,0,1,4.88-1.17,9.63,9.63,0,0,1,6.75,2.5,11.4,11.4,0,0,1,3.16,7.08l0,.4h3.31V149.28h-4.25l.22,2.24a19.45,19.45,0,0,0-4.29-1.85,19.69,19.69,0,0,0-5.41-.76,18.7,18.7,0,0,0-8.29,1.75,16.71,16.71,0,0,0-5.92,4.72,21.28,21.28,0,0,0-3.53,6.59,23.69,23.69,0,0,0-1.19,7.41,21.28,21.28,0,0,0,1.33,7.57,18.51,18.51,0,0,0,3.81,6.15,17.58,17.58,0,0,0,5.91,4.12,19.09,19.09,0,0,0,7.51,1.47,22.76,22.76,0,0,0,5-.62,17.46,17.46,0,0,0,5.53-2.43,20,20,0,0,0,5.22-5.16l.25-.34-2.45-2.08Z"/><path class="cls-3" d="M311.47,180.27V158.45a20.81,20.81,0,0,1,.2-3.19,2.68,2.68,0,0,1,.85-1.64,3.7,3.7,0,0,1,2.22-.61h.44v-3.24h-14v3.87l.48,0,1.91-.1,1.45-.08c0,.41-.05.87-.07,1.38,0,.73-.05,1.49-.05,2.27v9.58H288.27v-8.19a20.81,20.81,0,0,1,.2-3.19,2.64,2.64,0,0,1,.86-1.64,3.64,3.64,0,0,1,2.21-.61H292v-3.24H278v3.87l.49,0,1.9-.1,1.45-.08c0,.41-.05.87-.07,1.38,0,.73,0,1.49,0,2.27v22.09a19.45,19.45,0,0,1-.21,3.16,2.55,2.55,0,0,1-.82,1.64,4.08,4.08,0,0,1-2.26.64l-.43,0v3.23h14V184l-.49,0c-.52,0-1.14.07-1.86.08-.51,0-1,0-1.46.08,0-.37.06-.8.07-1.31,0-.76,0-1.63,0-2.58v-9.8l16.66-.15v8.83a19.45,19.45,0,0,1-.21,3.16,2.55,2.55,0,0,1-.82,1.64,4.08,4.08,0,0,1-2.26.64l-.43,0v3.23h14V184l-.48,0c-.56,0-1.19.07-1.9.08-.5,0-1,0-1.43.08,0-.37.06-.8.07-1.31,0-.76,0-1.63,0-2.58"/></svg>